<?xml version="1.0" encoding="utf-8"?>
<svg version="1.1" width="40px" height="33px" xmlns:xlink="http://www.w3.org/1999/xlink" xmlns="http://www.w3.org/2000/svg">
  <g transform="translate(-9 -10 )">
    <path d="M 23.7244897959184 30.176953125  C 23.7414965986395 30.271484375  23.7244897959184 30.3875  23.6734693877551 30.525  C 23.6734693877551 30.59375  23.6649659863946 30.765625  23.6479591836735 31.040625  C 23.6309523809524 31.315625  23.6267006802721 31.543359375  23.6352040816327 31.723828125  C 23.6437074829932 31.904296875  23.6692176870748 32.10625  23.7117346938776 32.3296875  C 23.7542517006803 32.553125  23.8392857142857 32.720703125  23.9668367346939 32.832421875  C 24.094387755102 32.944140625  24.2687074829932 33  24.4897959183673 33  L 32.6530612244898 33  C 34.6768707482993 33  36.4073129251701 32.273828125  37.844387755102 30.821484375  C 39.281462585034 29.369140625  40 27.6203125  40 25.575  L 40 7.425  C 40 5.37968749999999  39.281462585034 3.630859375  37.844387755102 2.178515625  C 36.4073129251701 0.726171874999995  34.6768707482993 0  32.6530612244898 0  L 24.4897959183673 0  C 24.2687074829932 0  24.0773809523809 0.0816406249999954  23.9158163265306 0.244921875000001  C 23.7542517006803 0.408203124999999  23.6734693877551 0.601562499999999  23.6734693877551 0.825000000000001  C 23.6734693877551 0.893749999999997  23.6649659863946 1.065625  23.6479591836735 1.340625  C 23.6309523809524 1.615625  23.6267006802721 1.843359375  23.6352040816327 2.023828125  C 23.6437074829932 2.204296875  23.6692176870748 2.40625  23.7117346938776 2.6296875  C 23.7542517006803 2.853125  23.8392857142857 3.020703125  23.9668367346939 3.132421875  C 24.094387755102 3.244140625  24.2687074829932 3.3  24.4897959183673 3.3  L 32.6530612244898 3.3  C 33.7755102040816 3.3  34.7363945578231 3.70390624999999  35.5357142857143 4.51171875  C 36.3350340136054 5.31953125  36.734693877551 6.290625  36 7.425  L 36 25.575  C 36.734693877551 26.709375  36.3350340136054 27.68046875  35.5357142857143 28.48828125  C 34.7363945578231 29.29609375  33.7755102040816 29.7  32.6530612244898 29.7  L 25.3061224489796 29.7  L 25.0255102040816 29.7  L 24.6938775510204 29.7  C 24.6938775510204 29.7  24.5960884353741 29.70859375  24.4005102040816 29.72578125  C 24.2049319727891 29.74296875  24.1071428571429 29.76875  24.1071428571429 29.803125  C 24.1071428571429 29.8375  24.0391156462585 29.884765625  23.9030612244898 29.944921875  C 23.7670068027211 30.005078125  23.7074829931973 30.082421875  23.7244897959184 30.176953125  Z M 0.484693877551021 15.33984375  C 0.161564625850339 15.66640625  0 16.053125  0 16.5  C 0 16.946875  0.161564625850339 17.33359375  0.484693877551021 17.66015625  L 14.3622448979592 31.68515625  C 14.6853741496599 32.01171875  15.0680272108844 32.175  15.5102040816327 32.175  C 15.9523809523809 32.175  16.3350340136054 32.01171875  16.6581632653061 31.68515625  C 16.9812925170068 31.35859375  17.1428571428571 30.971875  17.1428571428571 30.525  L 17.1428571428571 23  L 28.5714285714286 23  C 29.0136054421769 23.1  29.3962585034014 22.93671875  29.719387755102 22.61015625  C 30.0425170068027 22.28359375  30.2040816326531 21.896875  30.2040816326531 21.45  L 30.2040816326531 11.55  C 30.2040816326531 11.103125  30.0425170068027 10.71640625  29.719387755102 10.38984375  C 29.3962585034014 10.06328125  29.0136054421769 9.9  28.5714285714286 10  L 17.1428571428571 10  L 17.1428571428571 2.475  C 17.1428571428571 2.02812499999999  16.9812925170068 1.64140624999999  16.6581632653061 1.31484375  C 16.3350340136054 0.988281249999999  15.9523809523809 0.825000000000001  15.5102040816327 0.825000000000001  C 15.0680272108844 0.825000000000001  14.6853741496599 0.988281249999999  14.3622448979592 1.31484375  L 0.484693877551021 15.33984375  Z " fill-rule="nonzero" fill="#7f7f7f" stroke="none" transform="matrix(1 0 0 1 9 10 )" />
  </g>
</svg>