<?xml version="1.0" encoding="utf-8"?>
<svg version="1.1" width="141px" height="54px" xmlns:xlink="http://www.w3.org/1999/xlink" xmlns="http://www.w3.org/2000/svg">
  <defs>
    <mask fill="white" id="clip12">
      <path d="M 132.865771812081 40  L 85.116194660134 40  L 73.3758839556983 52.1908684785414  C 71.7653889405073 53.7945866582725  69.2346110594928 53.7945866582725  67.6241160443017 52.1908684785414  L 55.8837651527062 40  L 8.13422818791946 40  C 3.57906040268456 40.5  0 36.936  0 32.4  L 0 8.09999999999999  C 0 3.56399999999999  3.57906040268456 0  8.13422818791946 0  L 132.865771812081 0  C 137.420939597315 0  141 3.56399999999999  141 8.09999999999999  L 141 32.4  C 141 36.936  137.420939597315 40.5  132.865771812081 40  Z " fill-rule="evenodd" />
    </mask>
  </defs>
  <g transform="translate(-225 -185 )">
    <path d="M 132.865771812081 40  L 85.116194660134 40  L 73.3758839556983 52.1908684785414  C 71.7653889405073 53.7945866582725  69.2346110594928 53.7945866582725  67.6241160443017 52.1908684785414  L 55.8837651527062 40  L 8.13422818791946 40  C 3.57906040268456 40.5  0 36.936  0 32.4  L 0 8.09999999999999  C 0 3.56399999999999  3.57906040268456 0  8.13422818791946 0  L 132.865771812081 0  C 137.420939597315 0  141 3.56399999999999  141 8.09999999999999  L 141 32.4  C 141 36.936  137.420939597315 40.5  132.865771812081 40  Z " fill-rule="nonzero" fill="#ffffff" stroke="none" transform="matrix(1 0 0 1 225 185 )" />
    <path d="M 132.865771812081 40  L 85.116194660134 40  L 73.3758839556983 52.1908684785414  C 71.7653889405073 53.7945866582725  69.2346110594928 53.7945866582725  67.6241160443017 52.1908684785414  L 55.8837651527062 40  L 8.13422818791946 40  C 3.57906040268456 40.5  0 36.936  0 32.4  L 0 8.09999999999999  C 0 3.56399999999999  3.57906040268456 0  8.13422818791946 0  L 132.865771812081 0  C 137.420939597315 0  141 3.56399999999999  141 8.09999999999999  L 141 32.4  C 141 36.936  137.420939597315 40.5  132.865771812081 40  Z " stroke-width="2" stroke="#797979" fill="none" transform="matrix(1 0 0 1 225 185 )" mask="url(#clip12)" />
  </g>
</svg>