<?xml version="1.0" encoding="utf-8"?>
<svg version="1.1" width="19px" height="20px" xmlns:xlink="http://www.w3.org/1999/xlink" xmlns="http://www.w3.org/2000/svg">
  <g transform="translate(-237 -196 )">
    <path d="M 14.6020979020979 10  L 18.1363636363636 12.0052083333333  C 18.5438228438228 12.2309027777778  18.8073426573427 12.5672743055556  18.9269230769231 13.0143229166667  C 19.0465034965035 13.4613715277778  18.9911421911422 13.8845486111111  18.7608391608392 14.2838541666667  L 17.9104895104895 15.7161458333333  C 17.6801864801865 16.1154513888889  17.3369463869464 16.3736979166667  16.8807692307692 16.4908854166667  C 16.4245920745921 16.6080729166667  15.9927738927739 16.5538194444444  15.5853146853147 16.328125  L 12.051048951049 14.3359375  L 12.051048951049 18.3333333333333  C 12.051048951049 18.7847222222222  11.8827505827506 19.1753472222222  11.5461538461538 19.5052083333333  C 11.2095571095571 19.8350694444444  10.8109557109557 20  10.3503496503496 20  L 8.64965034965035 20  C 8.18904428904429 20  7.79044289044289 19.8350694444444  7.45384615384615 19.5052083333333  C 7.11724941724942 19.1753472222222  6.94895104895105 18.7847222222222  6.94895104895105 18.3333333333333  L 6.94895104895105 14.3359375  L 3.41468531468531 16.328125  C 3.00722610722611 16.5538194444444  2.57540792540793 16.6080729166667  2.11923076923077 16.4908854166667  C 1.66305361305361 16.3736979166667  1.31981351981352 16.1154513888889  1.08951048951049 15.7161458333333  L 0.239160839160839 14.2838541666667  C 0.00885780885780892 13.8845486111111  -0.0465034965034965 13.4613715277778  0.0730769230769231 13.0143229166667  C 0.192657342657343 12.5672743055556  0.456177156177156 12.2309027777778  0.863636363636364 12.0052083333333  L 4.3979020979021 10  L 0.863636363636364 7.99479166666667  C 0.456177156177156 7.76909722222222  0.192657342657343 7.43272569444444  0.0730769230769231 6.98567708333333  C -0.0465034965034965 6.53862847222222  0.00885780885780892 6.11545138888889  0.239160839160839 5.71614583333333  L 1.08951048951049 4.28385416666667  C 1.31981351981352 3.88454861111111  1.66305361305361 3.62630208333333  2.11923076923077 3.50911458333333  C 2.57540792540793 3.39192708333333  3.00722610722611 3.44618055555555  3.41468531468531 3.671875  L 6.94895104895105 5.6640625  L 6.94895104895105 1.66666666666667  C 6.94895104895105 1.21527777777778  7.11724941724942 0.824652777777777  7.45384615384615 0.494791666666667  C 7.79044289044289 0.164930555555554  8.18904428904429 0  8.64965034965035 0  L 10.3503496503496 0  C 10.8109557109557 0  11.2095571095571 0.164930555555554  11.5461538461538 0.494791666666667  C 11.8827505827506 0.824652777777777  12.051048951049 1.21527777777778  12.051048951049 1.66666666666667  L 12.051048951049 5.6640625  L 15.5853146853147 3.671875  C 15.9927738927739 3.44618055555555  16.4245920745921 3.39192708333333  16.8807692307692 3.50911458333333  C 17.3369463869464 3.62630208333333  17.6801864801865 3.88454861111111  17.9104895104895 4.28385416666667  L 18.7608391608392 5.71614583333333  C 18.9911421911422 6.11545138888889  19.0465034965035 6.53862847222222  18.9269230769231 6.98567708333333  C 18.8073426573427 7.43272569444444  18.5438228438228 7.76909722222222  18.1363636363636 7.99479166666667  L 14.6020979020979 10  Z " fill-rule="nonzero" fill="#7f7f7f" stroke="none" transform="matrix(1 0 0 1 237 196 )" />
  </g>
</svg>