<?xml version="1.0" encoding="utf-8"?>
<svg version="1.1" width="123px" height="60px" xmlns:xlink="http://www.w3.org/1999/xlink" xmlns="http://www.w3.org/2000/svg">
  <defs>
    <mask fill="white" id="clip13">
      <path d="M 96 0  L 95.9999809152635 0.142097525658301  C 111.345055593235 1.60623439155462  123 14.2138065948548  123 30  C 123 45.7861934051452  111.345055593235 58.3937656084454  96 59.8579024621896  L 96 60  L 92.9999998973275 60  L 0 60  L 0 0  L 92.9999998973273 0  L 96 0  Z " fill-rule="evenodd" />
    </mask>
  </defs>
  <g transform="translate(-230 -52 )">
    <path d="M 96 0  L 95.9999809152635 0.142097525658301  C 111.345055593235 1.60623439155462  123 14.2138065948548  123 30  C 123 45.7861934051452  111.345055593235 58.3937656084454  96 59.8579024621896  L 96 60  L 92.9999998973275 60  L 0 60  L 0 0  L 92.9999998973273 0  L 96 0  Z " fill-rule="nonzero" fill="#ffffff" stroke="none" transform="matrix(1 0 0 1 230 52 )" />
    <path d="M 96 0  L 95.9999809152635 0.142097525658301  C 111.345055593235 1.60623439155462  123 14.2138065948548  123 30  C 123 45.7861934051452  111.345055593235 58.3937656084454  96 59.8579024621896  L 96 60  L 92.9999998973275 60  L 0 60  L 0 0  L 92.9999998973273 0  L 96 0  Z " stroke-width="2" stroke="#797979" fill="none" transform="matrix(1 0 0 1 230 52 )" mask="url(#clip13)" />
  </g>
</svg>