<?xml version="1.0" encoding="utf-8"?>
<svg version="1.1" width="34px" height="32px" xmlns:xlink="http://www.w3.org/1999/xlink" xmlns="http://www.w3.org/2000/svg">
  <g transform="translate(-299 -66 )">
    <path d="M 33.1925545571245 14.9565217391304  C 33.7308515190415 15.5217391304348  34 16.1811594202899  34 16.9347826086957  C 34 17.6739130434783  33.7308515190415 18.3260869565217  33.1925545571245 18.8913043478261  L 31.5558408215661 20.5217391304348  C 31.0029952931108 21.0724637681159  30.3410355156183 21.3478260869565  29.5699614890886 21.3478260869565  C 28.7843388960205 21.3478260869565  28.1296534017972 21.0724637681159  27.6059050064185 20.5217391304348  L 21 14.1521739130435  L 21 29.4565217391304  C 21.1899871630295 30.2101449275362  20.9172015404365 30.8224637681159  20.3716302952503 31.2934782608696  C 19.8260590500642 31.7644927536232  19.1677364142062 32  18.3966623876765 32  L 15.6033376123235 32  C 14.8322635857938 32  14.1739409499358 31.7644927536232  13.6283697047497 31.2934782608696  C 13.0827984595635 30.8224637681159  12.8100128369705 30.2101449275362  13 29.4565217391304  L 13 14.1521739130435  L 6.39409499358151 20.5217391304348  C 5.87034659820282 21.0724637681159  5.21566110397946 21.3478260869565  4.43003851091142 21.3478260869565  C 3.64441591784339 21.3478260869565  2.98973042362003 21.0724637681159  2.46598202824133 20.5217391304348  L 0.829268292682927 18.8913043478261  C 0.276422764227642 18.3405797101449  0 17.6884057971014  0 16.9347826086957  C 0 16.1666666666667  0.276422764227642 15.5072463768116  0.829268292682927 14.9565217391304  L 15.0359435173299 0.804347826086957  C 15.5451433461703 0.268115942028984  16.1998288403937 0  17 0  C 17.785622593068 0  18.4475823705606 0.268115942028984  18.9858793324775 0.804347826086957  L 33.1925545571245 14.9565217391304  Z " fill-rule="nonzero" fill="#aaaaaa" stroke="none" transform="matrix(1 0 0 1 299 66 )" />
  </g>
</svg>