<?xml version="1.0" encoding="utf-8"?>
<svg version="1.1" width="21px" height="33px" xmlns:xlink="http://www.w3.org/1999/xlink" xmlns="http://www.w3.org/2000/svg">
  <g transform="translate(-39 -610 )">
    <path d="M 20.48046875 0.515625  C 20.8268229166667 0.859374999999995  21 1.26644736842105  21 1.73684210526316  L 21 31.2631578947368  C 21 31.7335526315789  20.8268229166667 32.140625  20.48046875 32.484375  C 20.1341145833333 32.828125  19.7239583333333 33  19.25 33  C 18.7760416666667 33  18.3658854166667 32.828125  18.01953125 32.484375  L 8.9140625 23.4473684210526  L 1.75 23.4473684210526  C 1.27604166666667 23.4473684210526  0.865885416666667 23.2754934210526  0.51953125 22.9317434210526  C 0.173177083333333 22.5879934210526  0 22.1809210526316  0 21.7105263157895  L 0 11.2894736842105  C 0 10.8190789473684  0.173177083333333 10.4120065789474  0.51953125 10.0682565789474  C 0.865885416666667 9.72450657894737  1.27604166666667 9.55263157894737  1.75 9.55263157894737  L 8.9140625 9.55263157894737  L 18.01953125 0.515625  C 18.3658854166667 0.171874999999998  18.7760416666667 0  19.25 0  C 19.7239583333333 0  20.1341145833333 0.171874999999998  20.48046875 0.515625  Z " fill-rule="nonzero" fill="#000000" stroke="none" transform="matrix(1 0 0 1 39 610 )" />
  </g>
</svg>