<?xml version="1.0" encoding="utf-8"?>
<svg version="1.1" width="25px" height="27px" xmlns:xlink="http://www.w3.org/1999/xlink" xmlns="http://www.w3.org/2000/svg">
  <g transform="translate(-144 -287 )">
    <path d="M 19.2132867132867 13.5  L 23.8636363636364 16.20703125  C 24.3997668997669 16.51171875  24.7465034965035 16.9658203125  24.9038461538462 17.5693359375  C 25.0611888111888 18.1728515625  24.988344988345 18.744140625  24.6853146853147 19.283203125  L 23.5664335664336 21.216796875  C 23.2634032634033 21.755859375  22.8117715617716 22.1044921875  22.2115384615385 22.2626953125  C 21.6113053613054 22.4208984375  21.0431235431235 22.34765625  20.506993006993 22.04296875  L 15.8566433566434 19.353515625  L 15.8566433566434 24.75  C 15.8566433566434 25.359375  15.6351981351981 25.88671875  15.1923076923077 26.33203125  C 14.7494172494173 26.77734375  14.2249417249417 27  13.6188811188811 27  L 11.3811188811189 27  C 10.7750582750583 27  10.2505827505828 26.77734375  9.80769230769231 26.33203125  C 9.36480186480187 25.88671875  9.14335664335664 25.359375  9.14335664335664 24.75  L 9.14335664335664 19.353515625  L 4.49300699300699 22.04296875  C 3.95687645687646 22.34765625  3.38869463869464 22.4208984375  2.78846153846154 22.2626953125  C 2.18822843822844 22.1044921875  1.73659673659674 21.755859375  1.43356643356643 21.216796875  L 0.314685314685315 19.283203125  C 0.0116550116550117 18.744140625  -0.0611888111888112 18.1728515625  0.0961538461538462 17.5693359375  C 0.253496503496503 16.9658203125  0.6002331002331 16.51171875  1.13636363636364 16.20703125  L 5.78671328671329 13.5  L 1.13636363636364 10.79296875  C 0.6002331002331 10.48828125  0.253496503496503 10.0341796875  0.0961538461538462 9.4306640625  C -0.0611888111888112 8.8271484375  0.0116550116550117 8.255859375  0.314685314685315 7.716796875  L 1.43356643356643 5.783203125  C 1.73659673659674 5.244140625  2.18822843822844 4.8955078125  2.78846153846154 4.7373046875  C 3.38869463869464 4.5791015625  3.95687645687646 4.65234375  4.49300699300699 4.95703125  L 9.14335664335664 7.646484375  L 9.14335664335664 2.25  C 9.14335664335664 1.640625  9.36480186480187 1.11328125  9.80769230769231 0.667968750000001  C 10.2505827505828 0.222656249999997  10.7750582750583 0  11.3811188811189 0  L 13.6188811188811 0  C 14.2249417249417 0  14.7494172494173 0.222656249999997  15.1923076923077 0.667968750000001  C 15.6351981351981 1.11328125  15.8566433566434 1.640625  15.8566433566434 2.25  L 15.8566433566434 7.646484375  L 20.506993006993 4.95703125  C 21.0431235431235 4.65234375  21.6113053613054 4.5791015625  22.2115384615385 4.7373046875  C 22.8117715617716 4.8955078125  23.2634032634033 5.244140625  23.5664335664336 5.783203125  L 24.6853146853147 7.716796875  C 24.988344988345 8.255859375  25.0611888111888 8.8271484375  24.9038461538462 9.4306640625  C 24.7465034965035 10.0341796875  24.3997668997669 10.48828125  23.8636363636364 10.79296875  L 19.2132867132867 13.5  Z " fill-rule="nonzero" fill="#7f7f7f" stroke="none" transform="matrix(1 0 0 1 144 287 )" />
  </g>
</svg>