<?xml version="1.0" encoding="utf-8"?>
<svg version="1.1" width="26px" height="23px" xmlns:xlink="http://www.w3.org/1999/xlink" xmlns="http://www.w3.org/2000/svg">
  <g transform="translate(-294 -142 )">
    <path d="M 16.7142857142857 18.013671875  C 16.8400297619048 18.013671875  16.9512648809524 17.9637586805556  17.0479910714286 17.8639322916667  L 19.1662946428571 15.677734375  C 19.2630208333333 15.5779079861111  19.3113839285714 15.4631076388889  19.3113839285714 15.3333333333333  C 19.3113839285714 15.2035590277778  19.2630208333333 15.0887586805556  19.1662946428571 14.9889322916667  L 15.7857142857143 11.5  L 19.1662946428571 8.01106770833333  C 19.2630208333333 7.91124131944444  19.3113839285714 7.79644097222222  19.3113839285714 7.66666666666667  C 19.3113839285714 7.53689236111111  19.2630208333333 7.42209201388889  19.1662946428571 7.322265625  L 17.0479910714286 5.13606770833333  C 16.9512648809524 5.03624131944444  16.8400297619048 4.986328125  16.7142857142857 4.986328125  C 16.5885416666667 4.986328125  16.477306547619 5.03624131944444  16.3805803571429 5.13606770833333  L 13 8.625  L 9.61941964285714 5.13606770833333  C 9.52269345238095 5.03624131944444  9.41145833333333 4.986328125  9.28571428571429 4.986328125  C 9.15997023809524 4.986328125  9.04873511904762 5.03624131944444  8.95200892857143 5.13606770833333  L 6.83370535714286 7.322265625  C 6.73697916666667 7.42209201388889  6.68861607142857 7.53689236111111  6.68861607142857 7.66666666666667  C 6.68861607142857 7.79644097222222  6.73697916666667 7.91124131944444  6.83370535714286 8.01106770833333  L 10.2142857142857 11.5  L 6.83370535714286 14.9889322916667  C 6.73697916666667 15.0887586805556  6.68861607142857 15.2035590277778  6.68861607142857 15.3333333333333  C 6.68861607142857 15.4631076388889  6.73697916666667 15.5779079861111  6.83370535714286 15.677734375  L 8.95200892857143 17.8639322916667  C 9.04873511904762 17.9637586805556  9.15997023809524 18.013671875  9.28571428571429 18.013671875  C 9.41145833333333 18.013671875  9.52269345238095 17.9637586805556  9.61941964285714 17.8639322916667  L 13 14.375  L 16.3805803571429 17.8639322916667  C 16.477306547619 17.9637586805556  16.5885416666667 18.013671875  16.7142857142857 18.013671875  Z M 25.3180803571429 0.703776041666668  C 25.772693452381 1.17296006944444  26 1.73697916666667  26 2.39583333333333  L 26 20.6041666666667  C 26 21.2630208333333  25.772693452381 21.8270399305556  25.3180803571429 22.2962239583333  C 24.8634672619048 22.7654079861111  24.3169642857143 23  23.6785714285714 23  L 2.32142857142857 23  C 1.68303571428571 23  1.13653273809524 22.7654079861111  0.681919642857143 22.2962239583333  C 0.227306547619048 21.8270399305556  0 21.2630208333333  0 20.6041666666667  L 0 2.39583333333333  C 0 1.73697916666667  0.227306547619048 1.17296006944444  0.681919642857143 0.703776041666668  C 1.13653273809524 0.234592013888887  1.68303571428571 0  2.32142857142857 0  L 23.6785714285714 0  C 24.3169642857143 0  24.8634672619048 0.234592013888887  25.3180803571429 0.703776041666668  Z " fill-rule="nonzero" fill="#7f7f7f" stroke="none" transform="matrix(1 0 0 1 294 142 )" />
  </g>
</svg>