<?xml version="1.0" encoding="utf-8"?>
<svg version="1.1" width="28px" height="28px" xmlns:xlink="http://www.w3.org/1999/xlink" xmlns="http://www.w3.org/2000/svg">
  <g transform="translate(-8 -16 )">
    <path d="M 22 19.5071067811866  C 19.2 16.5  16.4 16.5  15 16.5  C 12.4 16.5  8.5 19.1275862068966  8.5 24.12  C 8.5 35.2475571970105  22 43.3896722192133  22 43.3896722192133  C 22 43.3896722192133  35.5 35.2475571970105  35.5 24.12  C 35.5 19.1275862068966  31.6 16.5  29 16.5  C 27.6 16.5  24.8 16.5  22 19.5071067811866  Z " fill-rule="nonzero" fill="#c280ff" stroke="none" />
    <path d="M 22 18.8  C 19.2 16  16.4 16  15 16  C 12.2 16  8 18.8  8 24.12  C 8 35.6  22 44  22 44  C 22 44  36 35.6  36 24.12  C 36 18.8  31.8 16  29 16  C 27.6 16  24.8 16  22 18.8  Z M 22 20.2142135623731  C 24.8 17  27.6 17  29 17  C 31.4 17  35 19.4551724137931  35 24.12  C 35 34.895114394021  22 42.7793444384266  22 42.7793444384266  C 22 42.7793444384266  9 34.895114394021  9 24.12  C 9 19.4551724137931  12.6 17  15 17  C 16.4 17  19.2 17  22 20.2142135623731  Z " fill-rule="nonzero" fill="#797979" stroke="none" />
  </g>
</svg>