<?xml version="1.0" encoding="utf-8"?>
<svg version="1.1" width="28px" height="28px" xmlns:xlink="http://www.w3.org/1999/xlink" xmlns="http://www.w3.org/2000/svg">
  <g transform="translate(-104 -15 )">
    <path d="M 118 18.5071067811866  C 115.2 15.5  112.4 15.5  111 15.5  C 108.4 15.5  104.5 18.1275862068966  104.5 23.12  C 104.5 34.2475571970105  118 42.3896722192133  118 42.3896722192133  C 118 42.3896722192133  131.5 34.2475571970105  131.5 23.12  C 131.5 18.1275862068966  127.6 15.5  125 15.5  C 123.6 15.5  120.8 15.5  118 18.5071067811866  Z " fill-rule="nonzero" fill="#d4d4d4" stroke="none" />
    <path d="M 118 17.8  C 115.2 15  112.4 15  111 15  C 108.2 15  104 17.8  104 23.12  C 104 34.6  118 43  118 43  C 118 43  132 34.6  132 23.12  C 132 17.8  127.8 15  125 15  C 123.6 15  120.8 15  118 17.8  Z M 118 19.2142135623731  C 120.8 16  123.6 16  125 16  C 127.4 16  131 18.4551724137931  131 23.12  C 131 33.895114394021  118 41.7793444384266  118 41.7793444384266  C 118 41.7793444384266  105 33.895114394021  105 23.12  C 105 18.4551724137931  108.6 16  111 16  C 112.4 16  115.2 16  118 19.2142135623731  Z " fill-rule="nonzero" fill="#797979" stroke="none" />
  </g>
</svg>