<?xml version="1.0" encoding="utf-8"?>
<svg version="1.1" width="12px" height="14px" xmlns:xlink="http://www.w3.org/1999/xlink" xmlns="http://www.w3.org/2000/svg">
  <g transform="translate(-125 -92 )">
    <path d="M 11.3853006681514 3.55889423076923  C 11.554565701559 3.55889423076923  11.706013363029 3.60096153846154  11.8396436525612 3.68509615384615  C 12 3.79727564102564  12.0311804008909 3.92067307692308  11.9331848552339 4.05528846153846  L 4.71714922048998 13.7896634615385  C 4.60133630289532 13.9298878205128  4.41425389755011 14  4.15590200445434 14  C 4.12026726057907 14  4.05790645879733 13.994391025641  3.96881959910913 13.9831730769231  C 3.8173719376392 13.9551282051282  3.70378619153675 13.901842948718  3.62806236080178 13.8233173076923  C 3.55233853006682 13.7447916666667  3.53229398663697 13.6606570512821  3.56792873051225 13.5709134615385  L 6.20044543429844 6.77283653846154  L 0.775055679287305 7.62259615384615  C 0.739420935412027 7.62820512820513  0.685968819599109 7.63100961538462  0.614699331848552 7.63100961538462  C 0.4543429844098 7.63100961538462  0.316258351893096 7.60016025641026  0.200445434298441 7.53846153846154  C 0.0400890868596882 7.45432692307692  -0.0178173719376392 7.34495192307692  0.0267260579064588 7.21033653846154  L 2.71269487750557 0.26923076923077  C 2.74832962138085 0.190705128205128  2.8195991091314 0.126201923076924  2.92650334075724 0.075721153846154  C 3.03340757238307 0.0252403846153841  3.15812917594655 0  3.30066815144766 0  L 7.6837416481069 0  C 7.85300668151448 0  7.99554565701559 0.0350560897435879  8.11135857461024 0.10516826923077  C 8.2271714922049 0.175280448717949  8.28507795100223 0.25801282051282  8.28507795100223 0.353365384615384  C 8.28507795100223 0.398237179487179  8.26280623608018 0.448717948717949  8.21826280623608 0.504807692307692  L 5.93318485523385 4.40024038461538  L 11.2249443207127 3.57572115384615  C 11.2962138084633 3.5645032051282  11.3496659242762 3.55889423076923  11.3853006681514 3.55889423076923  Z " fill-rule="nonzero" fill="#000000" stroke="none" transform="matrix(1 0 0 1 125 92 )" />
  </g>
</svg>