<?xml version="1.0" encoding="utf-8"?>
<svg version="1.1" width="29px" height="22px" xmlns:xlink="http://www.w3.org/1999/xlink" xmlns="http://www.w3.org/2000/svg">
  <g transform="translate(-65 -220 )">
    <path d="M 28.4761290322581 3.03703703703704  C 28.825376344086 3.38271604938272  29 3.80246913580247  29 4.2962962962963  C 29 4.79012345679012  28.825376344086 5.20987654320987  28.4761290322581 5.55555555555555  L 14.9303225806452 18.962962962963  L 12.3858064516129 21.4814814814815  C 12.0365591397849 21.8271604938272  11.6124731182796 22  11.1135483870968 22  C 10.614623655914 22  10.1905376344086 21.8271604938272  9.84129032258065 21.4814814814815  L 7.29677419354839 18.962962962963  L 0.523870967741936 12.2592592592593  C 0.174623655913979 11.9135802469136  0 11.4938271604938  0 11  C 0 10.5061728395062  0.174623655913979 10.0864197530864  0.523870967741936 9.74074074074074  L 3.06838709677419 7.22222222222222  C 3.41763440860215 6.87654320987654  3.84172043010753 6.7037037037037  4.34064516129032 6.7037037037037  C 4.83956989247312 6.7037037037037  5.26365591397849 6.87654320987654  5.61290322580645 7.22222222222222  L 11.1135483870968 12.6851851851852  L 23.3870967741935 0.518518518518519  C 23.7363440860215 0.172839506172839  24.1604301075269 0  24.6593548387097 0  C 25.1582795698925 0  25.5823655913978 0.172839506172839  25.9316129032258 0.518518518518519  L 28.4761290322581 3.03703703703704  Z " fill-rule="nonzero" fill="#7f7f7f" stroke="none" transform="matrix(1 0 0 1 65 220 )" />
  </g>
</svg>