<?xml version="1.0" encoding="utf-8"?>
<svg version="1.1" width="225px" height="240px" xmlns:xlink="http://www.w3.org/1999/xlink" xmlns="http://www.w3.org/2000/svg">
  <g transform="translate(-77 -165 )">
    <path d="M 172.91958041958 120  L 214.772727272727 144.0625  C 219.597902097902 146.770833333333  222.718531468531 150.807291666667  224.134615384615 156.171875  C 225.550699300699 161.536458333333  224.895104895105 166.614583333333  222.167832167832 171.40625  L 212.097902097902 188.59375  C 209.370629370629 193.385416666667  205.305944055944 196.484375  199.903846153846 197.890625  C 194.501748251748 199.296875  189.388111888112 198.645833333333  184.562937062937 195.9375  L 142 172.03125  L 142 220  C 142.70979020979 225.416666666667  140.716783216783 230.104166666667  136.730769230769 234.0625  C 132.744755244755 238.020833333333  128.024475524476 240  122.56993006993 240  L 102.43006993007 240  C 96.9755244755245 240  92.2552447552448 238.020833333333  88.2692307692308 234.0625  C 84.2832167832168 230.104166666667  82.2902097902098 225.416666666667  83 220  L 83 172.03125  L 40.4370629370629 195.9375  C 35.6118881118881 198.645833333333  30.4982517482518 199.296875  25.0961538461538 197.890625  C 19.6940559440559 196.484375  15.6293706293706 193.385416666667  12.9020979020979 188.59375  L 2.83216783216783 171.40625  C 0.104895104895106 166.614583333333  -0.550699300699301 161.536458333333  0.865384615384615 156.171875  C 2.28146853146853 150.807291666667  5.4020979020979 146.770833333333  10.2272727272727 144.0625  L 52.0804195804196 120  L 10.2272727272727 95.9375  C 5.4020979020979 93.2291666666667  2.28146853146853 89.1927083333333  0.865384615384615 83.828125  C -0.550699300699301 78.4635416666667  0.104895104895106 73.3854166666666  2.83216783216783 68.59375  L 12.9020979020979 51.40625  C 15.6293706293706 46.6145833333333  19.6940559440559 43.515625  25.0961538461538 42.109375  C 30.4982517482518 40.703125  35.6118881118881 41.3541666666666  40.4370629370629 44.0625  L 83 67.96875  L 83 20  C 82.2902097902098 14.5833333333333  84.2832167832168 9.89583333333332  88.2692307692308 5.93750000000001  C 92.2552447552448 1.97916666666664  96.9755244755245 0  102.43006993007 0  L 122.56993006993 0  C 128.024475524476 0  132.744755244755 1.97916666666664  136.730769230769 5.93750000000001  C 140.716783216783 9.89583333333332  142.70979020979 14.5833333333333  142 20  L 142 67.96875  L 184.562937062937 44.0625  C 189.388111888112 41.3541666666666  194.501748251748 40.703125  199.903846153846 42.109375  C 205.305944055944 43.515625  209.370629370629 46.6145833333333  212.097902097902 51.40625  L 222.167832167832 68.59375  C 224.895104895105 73.3854166666666  225.550699300699 78.4635416666667  224.134615384615 83.828125  C 222.718531468531 89.1927083333333  219.597902097902 93.2291666666667  214.772727272727 95.9375  L 172.91958041958 120  Z " fill-rule="nonzero" fill="#d4d4d4" stroke="none" fill-opacity="0.403921568627451" transform="matrix(1 0 0 1 77 165 )" />
  </g>
</svg>